name C:\Users\Nicos\Documents\OpenSimProjects\SprintingProject\Study1\PredictiveResults\IC_pred_Sprinting_optimum_28-October-2023__10-08-04___HTD_Minus_4_p02_maxVel_01.mot
datacolumns 38
datarows 11
range 0.20221901 0.21136640
endheader
                time	/jointset/ground_pelvis/pelvis_tilt/value	/jointset/ground_pelvis/pelvis_list/value	/jointset/ground_pelvis/pelvis_rotation/value	/jointset/ground_pelvis/pelvis_tx/value	/jointset/ground_pelvis/pelvis_ty/value	/jointset/ground_pelvis/pelvis_tz/value	/jointset/hip_r/hip_flexion_r/value	/jointset/hip_r/hip_adduction_r/value	/jointset/hip_r/hip_rotation_r/value	/jointset/knee_r/knee_angle_r/value	/jointset/ankle_r/ankle_angle_r/value	/jointset/subtalar_r/subtalar_angle_r/value	/jointset/mtp_r/mtp_angle_r/value	/jointset/hip_l/hip_flexion_l/value	/jointset/hip_l/hip_adduction_l/value	/jointset/hip_l/hip_rotation_l/value	/jointset/knee_l/knee_angle_l/value	/jointset/ankle_l/ankle_angle_l/value	/jointset/subtalar_l/subtalar_angle_l/value	/jointset/mtp_l/mtp_angle_l/value	/jointset/back/lumbar_extension/value	/jointset/back/lumbar_bending/value	/jointset/back/lumbar_rotation/value	/jointset/acromial_r/arm_flex_r/value	/jointset/acromial_r/arm_add_r/value	/jointset/acromial_r/arm_rot_r/value	/jointset/elbow_r/elbow_flex_r/value	/jointset/radioulnar_r/pro_sup_r/value	/jointset/radius_hand_r/wrist_flex_r/value	/jointset/radius_hand_r/wrist_dev_r/value	/jointset/acromial_l/arm_flex_l/value	/jointset/acromial_l/arm_add_l/value	/jointset/acromial_l/arm_rot_l/value	/jointset/elbow_l/elbow_flex_l/value	/jointset/radioulnar_l/pro_sup_l/value	/jointset/radius_hand_l/wrist_flex_l/value	/jointset/radius_hand_l/wrist_dev_l/value	
          0.20221901	         -6.32694558	          3.06153071	         -4.26213230	          1.65315262	          1.00151064	          0.31590370	          9.62340705	         -9.53796386	          5.44296872	        -90.97553387	        -22.36261149	        -12.78117059	        -10.41343441	         57.37932586	         -7.47400648	          0.62443711	        -41.82062812	         -2.07788639	        -25.30353440	         11.75119703	        -22.88770318	         -8.68575652	          8.81378637	         27.80515374	        -26.17266318	        -14.02743613	        110.75807570	         44.56420657	         -1.69028356	          6.33216620	        -57.63347872	        -16.60573037	        -13.45709390	         84.23600552	         78.00076495	        -22.80485717	          5.77449206	
          0.20359808	         -6.32010174	          3.03471017	         -3.99846949	          1.66864445	          1.00206012	          0.31567216	         10.03333299	         -9.60661082	          5.27746084	        -91.77722357	        -22.00756022	        -12.79751716	        -10.44150604	         56.70723266	         -7.13949127	          0.85186990	        -40.81154300	         -2.56416325	        -25.25788420	         12.12113740	        -22.98592767	         -8.65640733	          8.81561447	         26.28028901	        -26.10301155	        -14.38581374	        109.08862452	         44.10880685	         -1.60536813	          6.28966563	        -56.83916828	        -17.22004395	        -13.83344702	         84.86232436	         78.45265573	        -23.03930113	          5.73225684	
          0.20359808	         -6.32010174	          3.03471017	         -3.99846949	          1.66864445	          1.00206012	          0.31567216	         10.03333299	         -9.60661082	          5.27746084	        -91.77722357	        -22.00756022	        -12.79751716	        -10.44150604	         56.70723266	         -7.13949127	          0.85186990	        -40.81154300	         -2.56416325	        -25.25788420	         12.12113740	        -22.98592767	         -8.65640733	          8.81561447	         26.28028901	        -26.10301155	        -14.38581374	        109.08862452	         44.10880685	         -1.60536813	          6.28966563	        -56.83916828	        -17.22004395	        -13.83344702	         84.86232436	         78.45265573	        -23.03930113	          5.73225684	
          0.20420032	         -6.31916977	          3.02379389	         -3.88323798	          1.67541142	          1.00228838	          0.31556675	         10.21904760	         -9.63790507	          5.20734041	        -92.12848547	        -21.84953015	        -12.80832274	        -10.45232603	         56.41561119	         -6.99349616	          0.95496683	        -40.38248122	         -2.76422926	        -25.20363434	         12.30266071	        -23.02515095	         -8.64214945	          8.81386567	         25.63183027	        -26.06611667	        -14.51585002	        108.36004041	         43.91818987	         -1.57095031	          6.27110191	        -56.48434219	        -17.48796999	        -13.98155564	         85.15035400	         78.64830305	        -23.13997858	          5.71376943	
          0.20610317	         -6.32307292	          2.99184688	         -3.52049240	          1.69679718	          1.00296445	          0.31521997	         10.83159247	         -9.74071279	          4.99645793	        -93.24278768	        -21.33833079	        -12.85913328	        -10.47315136	         55.50036157	         -6.53558648	          1.29200843	        -39.07269603	         -3.35561740	        -24.88878072	         13.12332450	        -23.13582166	         -8.59152965	          8.79884818	         23.65563597	        -25.92773887	        -14.81377346	        106.06236951	         43.35525561	         -1.47286173	          6.21243017	        -55.32967993	        -18.33224738	        -14.38065929	         86.11734847	         79.25859224	        -23.44895900	          5.65521643	
          0.20748224	         -6.33169815	          2.97090264	         -3.25991734	          1.71229997	          1.00341237	          0.31495799	         11.29954134	         -9.81826294	          4.85516500	        -94.05431884	        -20.95691643	        -12.91140475	        -10.47378236	         54.84197314	         -6.20855665	          1.54341533	        -38.16601008	         -3.74648070	        -24.52439191	         13.82780787	        -23.20421473	         -8.55008479	          8.78019738	         22.29120890	        -25.80454700	        -14.93486295	        104.40617328	         42.99094001	         -1.41188753	          6.16992977	        -54.45844306	        -18.94182945	        -14.60116437	         86.87125212	         79.69250635	        -23.66198822	          5.61281250	
          0.20748224	         -6.33169815	          2.97090264	         -3.25991734	          1.71229997	          1.00341237	          0.31495799	         11.29954134	         -9.81826294	          4.85516500	        -94.05431884	        -20.95691643	        -12.91140475	        -10.47378236	         54.84197314	         -6.20855665	          1.54341533	        -38.16601008	         -3.74648070	        -24.52439191	         13.82780787	        -23.20421473	         -8.55008479	          8.78019738	         22.29120890	        -25.80454700	        -14.93486295	        104.40617328	         42.99094001	         -1.41188753	          6.16992977	        -54.45844306	        -18.94182945	        -14.60116437	         86.87125212	         79.69250635	        -23.66198822	          5.61281250	
          0.20808448	         -6.33674868	          2.96221504	         -3.14695062	          1.71907075	          1.00359720	          0.31484128	         11.51000173	         -9.85269513	          4.79678837	        -94.40964083	        -20.78754883	        -12.93814712	        -10.47041505	         54.55546476	         -6.06741429	          1.65421747	        -37.78101576	         -3.90739710	        -24.33012858	         14.12336187	        -23.23124969	         -8.53076716	          8.77033079	         21.71284174	        -25.74404350	        -14.96635492	        103.68665077	         42.84495834	         -1.38792551	          6.15136657	        -54.06816965	        -19.20744940	        -14.67824685	         87.21417397	         79.87959397	        -23.75164904	          5.59430350	
          0.20998733	         -6.35786163	          2.93743169	         -2.79411854	          1.74046556	          1.00413788	          0.31446533	         12.19980208	         -9.96431974	          4.62693155	        -95.53587472	        -20.24209253	        -13.03653571	        -10.43767156	         53.65380306	         -5.62867022	          2.00377903	        -36.60644805	         -4.38392744	        -23.58836840	         14.88821870	        -23.30532581	         -8.46656211	          8.73319156	         19.95246423	        -25.52112327	        -14.99999413	        101.43399924	         42.44272157	         -1.32287301	          6.09269314	        -52.79338344	        -20.04181276	        -14.84874702	         88.35189682	         80.45940594	        -24.01845310	          5.53574527	
          0.21136640	         -6.37744987	          2.92226977	         -2.54192772	          1.75597280	          1.00448907	          0.31418649	         12.72242105	        -10.04828024	          4.51748205	        -96.35495099	        -19.83690557	        -13.11876400	        -10.39739934	         53.00275908	         -5.31718909	          2.25291625	        -35.79251237	         -4.71578786	        -22.96298058	         15.28210700	        -23.34912426	         -8.41771807	          8.70023636	         18.73768689	        -25.32488580	        -14.97868297	         99.82643313	         42.21225093	         -1.28584267	          6.05019753	        -51.82784982	        -20.63421986	        -14.91827195	         89.22836637	         80.86836672	        -24.19534258	          5.49337089	
          0.21136640	         -6.37744987	          2.92226977	         -2.54192772	          1.75597280	          1.00448907	          0.31418649	         12.72242105	        -10.04828024	          4.51748205	        -96.35495099	        -19.83690557	        -13.11876400	        -10.39739934	         53.00275908	         -5.31718909	          2.25291625	        -35.79251237	         -4.71578786	        -22.96298058	         15.28210700	        -23.34912426	         -8.41771807	          8.70023636	         18.73768689	        -25.32488580	        -14.97868297	         99.82643313	         42.21225093	         -1.28584267	          6.05019753	        -51.82784982	        -20.63421986	        -14.91827195	         89.22836637	         80.86836672	        -24.19534258	          5.49337089	
